<svg id="Layer_1" data-name="Layer 1" xmlns="http://www.w3.org/2000/svg" viewBox="0 0 148.70996 115.64111"><defs><style>.cls-1{fill:#2aa2dc;}.cls-2,.cls-4{fill:#1d1d1b;}.cls-2{opacity:0.2;}.cls-3{fill:#333;}</style></defs><rect class="cls-1" x="27.53735" y="49.17059" width="91.51579" height="16.76842" rx="8.3842"/><path class="cls-2" d="M292.6,331.31a28.40846,28.40846,0,0,0,2.95-.54A23.61093,23.61093,0,0,1,292.6,331.31Z" transform="translate(-182.21002 -232.41889)"/><path class="cls-2" d="M187.28,331.52H289.33c.73,0,1.45-.03,2.17-.1Z" transform="translate(-182.21002 -232.41889)"/><path class="cls-2" d="M315.57,273.06v32.21a26.69255,26.69255,0,0,1-.54,5.33V275.98A8.09743,8.09743,0,0,1,315.57,273.06Z" transform="translate(-182.21002 -232.41889)"/><path class="cls-3" d="M187.28,331.52H289.33c.73,0,1.45-.03,2.17-.1Z" transform="translate(-182.21002 -232.41889)"/><path class="cls-4" d="M330.92,273.09v33.29a41.68558,41.68558,0,0,1-41.69,41.68H197.53a41.78224,41.78224,0,0,1-8.35-.84h-.01c-.27-.05-.53-.11-.79-.17a.142.142,0,0,1-.06-.02,8.20362,8.20362,0,0,1-3.7-13.74,8.04767,8.04767,0,0,1,2.66-1.77H289.33q.58492,0,1.17-.03c.33-.01.67-.04,1-.07.36-.03.72-.07,1.08-.11h.02a28.40846,28.40846,0,0,0,2.95-.54q.69-.165,1.35-.36c.31-.1.61-.19.91-.3q.495-.165.99-.36h.02c.32-.13.64-.26.96-.4a23.44429,23.44429,0,0,0,2.91-1.49,4.95,4.95,0,0,0,.49-.3,8.01049,8.01049,0,0,0,.69-.43c.06-.05.13-.09.19-.14a22.489,22.489,0,0,0,1.93-1.44q.015,0,.03-.03c.32-.26.63995-.53.95-.82.32-.28.62006-.57.91-.87a12.37067,12.37067,0,0,0,.87-.91,24.92292,24.92292,0,0,0,2.3-2.91c.04-.05.07-.11005.11-.17.21-.31.42005-.63.61005-.96.22-.36.43-.73.63-1.1.21-.37.4-.75.58-1.13a22.41736,22.41736,0,0,0,.89-2.07995c.09-.22.17-.44.24-.67005a3.71922,3.71922,0,0,0,.16-.47,4.67215,4.67215,0,0,0,.17-.53c.11-.35.21-.71.3-1.07.1-.38.19-.77.27-1.16a.18525.18525,0,0,0,.02-.07c.09-.43.17-.86.23-1.3.04-.28.08-.56.11-.84a6.70715,6.70715,0,0,0,.08-.77,24.20093,24.20093,0,0,0,.12-2.42V273.06a8.20279,8.20279,0,0,1,15.35.03Z" transform="translate(-182.21002 -232.41889)"/><path class="cls-1" d="M182.21,308.32482V274.6192a42.29812,42.29812,0,0,1,15.89-33.14871,41.19255,41.19255,0,0,1,25.8-9.0516H315.6a41.285,41.285,0,0,1,8.35.85052h.01c.27.05061.53.11136.79.1721a.14091.14091,0,0,1,.06.02027,8.34926,8.34926,0,0,1,3.7,13.91152,8.04168,8.04168,0,0,1-2.66,1.79212l-102.05,0q-.58494,0-1.17.03034c-.33.01013-.67.04048-1,.07088-.36.03034-.72.07088-1.08.11136h-.02a28.09265,28.09265,0,0,0-2.95.54678q-.69.167-1.35.36448c-.31.10122-.61.19237-.91.30373q-.495.167-.99.36448h-.02c-.32.13163-.64.26326-.96.405a23.335,23.335,0,0,0-2.91,1.50859,4.93957,4.93957,0,0,0-.49.30373,7.9958,7.9958,0,0,0-.69.43536c-.06.05068-.13.09115-.19.14176a22.51492,22.51492,0,0,0-1.93,1.458q-.015,0-.03.03041c-.32.26319-.64.53658-.95.83018-.32.28352-.62.57712-.91.88092a12.45741,12.45741,0,0,0-.87.92133,25.1894,25.1894,0,0,0-2.3,2.9463c-.04.05067-.07.11142-.11.17217-.21.31386-.42.63787-.61.97194-.22.36454-.43.73916-.63,1.11377-.21.37461-.4.75936-.58,1.14411a22.85293,22.85293,0,0,0-.89,2.10592c-.09.22278-.17.4455-.24.67841a3.79564,3.79564,0,0,0-.16.47584,4.7741,4.7741,0,0,0-.17.53665c-.11.35434-.21.71882-.3,1.08336-.1.38469-.19.77957-.27,1.17446a.18931.18931,0,0,0-.02.07088c-.09.43536-.17.87072-.23,1.31621-.04.28353-.08.567-.11.85052a6.87031,6.87031,0,0,0-.08.77957c-.08.81-.12,1.62-.12,2.45025l0,32.61206a8.16973,8.16973,0,0,1-13.48,2.916A8.38171,8.38171,0,0,1,182.21,308.32482Z" transform="translate(-182.21002 -232.41889)"/></svg>